<svg width="48" height="48" viewBox="0 0 48 48" fill="none" xmlns="http://www.w3.org/2000/svg">
<circle cx="24" cy="24" r="24" fill="#DD3000"/>
<path d="M23 30.5C24.5783 30.5 25.8322 30.9179 26.707 31.7929C27.0977 32.1834 27.0977 32.8165 26.707 33.207C26.36 33.5542 25.8211 33.5928 25.4314 33.3228L25.293 33.207C24.8345 32.7487 24.0884 32.5 23 32.5C22.0325 32.5 21.3355 32.6966 20.8706 33.0622L20.707 33.207C20.3166 33.5977 19.6834 33.5977 19.293 33.207C18.9023 32.8166 18.9023 32.1834 19.293 31.793C20.1678 30.918 21.4217 30.5 23 30.5ZM26.293 22.2928C26.6834 21.9022 27.3166 21.9022 27.707 22.2928C28.8322 23.4178 30.5783 23.9998 32.9998 23.9998C33.5522 23.9998 33.9998 24.4475 33.9998 24.9998C33.9998 25.5522 33.5522 25.9998 32.9998 25.9998C30.0883 25.9998 27.8342 25.2486 26.2926 23.7069C25.902 23.3164 25.902 22.6833 26.2926 22.2928H26.293ZM19.707 22.2928C20.0976 22.6833 20.0976 23.3164 19.707 23.7069C18.1654 25.2486 15.9115 25.9998 12.9998 25.9998C12.4474 25.9998 11.9998 25.5522 11.9998 24.9998C11.9998 24.4475 12.4474 23.9998 12.9998 23.9998C15.4215 23.9998 17.1678 23.4178 18.2926 22.2928C18.683 21.9022 19.3162 21.9022 19.7066 22.2928H19.707Z" fill="#126782"/>
</svg>
