<svg width="144" height="144" viewBox="0 0 144 144" fill="none" xmlns="http://www.w3.org/2000/svg">
<circle cx="72" cy="72" r="72" fill="#DD3000"/>
<path d="M69 91.5C73.7348 91.5 77.4966 92.7539 80.1211 95.3789C81.293 96.5503 81.293 98.4497 80.1211 99.6211C79.08 100.663 77.4634 100.778 76.2942 99.9685L75.8789 99.6211C74.5036 98.2463 72.2653 97.5 69 97.5C66.0975 97.5 64.0065 98.0897 62.6119 99.1866L62.1212 99.6212C60.9498 100.793 59.0504 100.793 57.8789 99.6212C56.7071 98.4497 56.7071 96.5504 57.8789 95.3789C60.5034 92.7539 64.2652 91.5 69 91.5ZM78.8789 66.8784C80.0503 65.7065 81.9497 65.7065 83.1211 66.8784C86.4966 70.2534 91.7348 71.9995 98.9995 71.9995C100.657 71.9995 102 73.3425 102 74.9995C102 76.6566 100.657 77.9995 98.9995 77.9995C90.2648 77.9995 83.5027 75.7458 78.8779 71.1207C77.7061 69.9493 77.7061 68.0499 78.8779 66.8784H78.8789ZM59.1209 66.8784C60.2928 68.0498 60.2928 69.9492 59.1209 71.1207C54.4962 75.7458 47.7344 77.9995 38.9993 77.9995C37.3422 77.9995 35.9993 76.6566 35.9993 74.9995C35.9993 73.3425 37.3422 71.9995 38.9993 71.9995C46.2644 71.9995 51.5033 70.2534 54.8777 66.8784C56.0491 65.7065 57.9485 65.7065 59.1199 66.8784H59.1209Z" fill="#126782"/>
</svg>
