<svg width="16" height="36" viewBox="0 0 16 36" fill="none" xmlns="http://www.w3.org/2000/svg">
<path d="M7.95581 34.6151C6.09204 34.6151 4.22827 34.6151 2.3645 34.6151C1.96153 34.6151 1.86078 34.5647 1.81041 34.1114C1.60892 30.2831 1.65929 26.5052 2.21339 22.6769C2.41488 21.5183 2.66674 20.3598 3.12009 19.302C3.32157 18.899 3.57343 18.6975 4.02678 18.6975C6.64613 18.6975 9.26549 18.6975 11.8848 18.6975C12.3886 18.6975 12.6908 18.899 12.8923 19.3523C13.5471 20.9643 13.8494 22.6769 14.0005 24.4399C14.3531 27.6134 14.3531 30.8372 14.202 34.061C14.202 34.5647 14.0005 34.6151 13.5975 34.6151C11.7337 34.6151 9.81958 34.6151 7.95581 34.6151Z" fill="#909090"/>
<path d="M7.6032 15.3729C6.49502 15.3729 5.33646 15.3729 4.22827 15.3729C3.57343 15.3729 3.37194 15.1211 3.52306 14.5166C4.68162 10.3357 5.89055 6.15482 7.04911 1.97393C7.14985 1.6717 7.20023 1.31909 7.6032 1.31909C8.00618 1.31909 8.05655 1.6717 8.1573 1.97393C9.31585 6.15482 10.5248 10.2853 11.6833 14.4662C11.8848 15.1211 11.6833 15.3729 11.0285 15.3729C9.86995 15.3729 8.71139 15.3729 7.55283 15.3729H7.6032Z" fill="#909090"/>
<path d="M7.80469 18.2442C6.24316 18.2442 4.68162 18.2442 3.17045 18.2442C2.26376 18.2442 2.0119 17.7909 2.31413 16.9346C2.56599 16.179 3.01934 15.9271 3.82529 15.9271C6.59576 15.9271 9.4166 15.9271 12.1871 15.9271C12.993 15.9271 13.6479 16.7835 13.4967 17.5894C13.396 18.0428 13.0434 18.1939 12.59 18.1939C10.9781 18.1939 9.4166 18.1939 7.80469 18.1939V18.2442Z" fill="#909090"/>
</svg>
