<svg width="32" height="69" viewBox="0 0 32 69" fill="none" xmlns="http://www.w3.org/2000/svg">
<path d="M15.9116 67.2727C12.1841 67.2727 8.45654 67.2727 4.72901 67.2727C3.92305 67.2727 3.72156 67.172 3.62082 66.2653C3.21784 58.6087 3.31859 51.0529 4.42677 43.3963C4.82975 41.0792 5.33347 38.7621 6.24017 36.6464C6.64315 35.8405 7.14687 35.4375 8.05357 35.4375C13.2923 35.4375 18.531 35.4375 23.7697 35.4375C24.7771 35.4375 25.3816 35.8405 25.7846 36.7472C27.0942 39.971 27.6987 43.3963 28.0009 46.9224C28.7061 53.2692 28.7061 59.7169 28.4039 66.1645C28.4039 67.172 28.0009 67.2727 27.195 67.2727C23.4674 67.2727 19.6392 67.2727 15.9116 67.2727Z" fill="#909090"/>
<path d="M15.2064 28.7883C12.99 28.7883 10.6729 28.7883 8.45654 28.7883C7.14686 28.7883 6.74388 28.2846 7.04612 27.0757C9.36323 18.7139 11.7811 10.3521 14.0982 1.99034C14.2997 1.38588 14.4005 0.680664 15.2064 0.680664C16.0124 0.680664 16.1131 1.38588 16.3146 1.99034C18.6317 10.3521 21.0496 18.6131 23.3667 26.9749C23.7697 28.2846 23.3667 28.7883 22.057 28.7883C19.7399 28.7883 17.4228 28.7883 15.1057 28.7883H15.2064Z" fill="#909090"/>
<path d="M15.6094 34.531C12.4863 34.531 9.36324 34.531 6.34091 34.531C4.52751 34.531 4.02379 33.6243 4.62826 31.9116C5.13198 30.4004 6.03868 29.8967 7.65059 29.8967C13.1915 29.8967 18.8332 29.8967 24.3741 29.8967C25.986 29.8967 27.2957 31.6094 26.9935 33.2213C26.792 34.128 26.0868 34.4302 25.1801 34.4302C21.9563 34.4302 18.8332 34.4302 15.6094 34.4302V34.531Z" fill="#909090"/>
</svg>
