<svg width="32" height="69" viewBox="0 0 32 69" fill="none" xmlns="http://www.w3.org/2000/svg">
<path d="M3.40424 26.2754H28.4105V27.4794C28.4105 39.7973 28.4105 52.1152 28.4105 64.4331C28.4105 66.4706 27.8548 67.0263 25.8173 67.0263C19.1489 67.0263 12.5732 67.0263 5.90486 67.0263C4.05255 67.0263 3.40424 66.378 3.40424 64.5257C3.40424 52.2078 3.40424 39.7973 3.40424 27.4794C3.40424 27.1089 3.40424 26.6459 3.40424 26.2754Z" fill="#909090"/>
<path d="M28.4105 25.0712H3.49689C3.49689 24.7007 3.49689 24.3303 3.49689 23.9598C3.49689 17.2915 3.49689 10.5305 3.49689 3.8622C3.49689 1.91727 4.05258 1.36157 6.09013 1.36157C12.7585 1.36157 19.3342 1.36157 26.0025 1.36157C27.9475 1.36157 28.5958 1.91727 28.5958 3.8622C28.5958 10.5305 28.5958 17.1989 28.5958 23.8672V25.1638L28.4105 25.0712Z" fill="#909090"/>
</svg>
