<svg width="16" height="36" viewBox="0 0 16 36" fill="none" xmlns="http://www.w3.org/2000/svg">
<path d="M1.70212 14.1165H14.2052V14.7185C14.2052 20.8774 14.2052 27.0364 14.2052 33.1953C14.2052 34.2141 13.9274 34.4919 12.9086 34.4919C9.57446 34.4919 6.2866 34.4919 2.95243 34.4919C2.02627 34.4919 1.70212 34.1678 1.70212 33.2416C1.70212 27.0827 1.70212 20.8774 1.70212 14.7185C1.70212 14.5332 1.70212 14.3017 1.70212 14.1165Z" fill="#909090"/>
<path d="M14.2053 13.5144H1.74844C1.74844 13.3291 1.74844 13.1439 1.74844 12.9587C1.74844 9.6245 1.74844 6.24403 1.74844 2.90986C1.74844 1.93739 2.02629 1.65955 3.04507 1.65955C6.37923 1.65955 9.66709 1.65955 13.0013 1.65955C13.9737 1.65955 14.2979 1.93739 14.2979 2.90986C14.2979 6.24403 14.2979 9.5782 14.2979 12.9124V13.5607L14.2053 13.5144Z" fill="#909090"/>
</svg>
