<svg width="17" height="36" viewBox="0 0 17 36" fill="none" xmlns="http://www.w3.org/2000/svg">
<path d="M3.56381 18.0851C3.56381 17.4271 4.09726 16.8936 4.7553 16.8936H12.5851C13.2431 16.8936 13.7766 17.4271 13.7766 18.0851C13.7766 18.7432 13.2431 19.2766 12.5851 19.2766H4.7553C4.09726 19.2766 3.56381 18.7432 3.56381 18.0851Z" fill="#BCBBC1"/>
<path d="M3.23767 31.2281C3.1256 25.9055 3.69291 22.8052 4.24942 21.2738C4.51149 20.5526 5.23913 20.2128 6.00643 20.2128H11.334C12.1013 20.2128 12.8289 20.5526 13.091 21.2738C13.6475 22.8052 14.2148 25.9055 14.1027 31.2281C14.0723 32.6731 12.8716 33.8049 11.4262 33.8049H5.91422C4.46882 33.8049 3.26809 32.6731 3.23767 31.2281Z" fill="#BCBBC1"/>
<path d="M7.34542 4.16834C7.67722 2.77266 9.66318 2.77266 9.99498 4.16834L12.399 14.2808C12.6024 15.1364 11.9537 15.9575 11.0743 15.9575H6.26613C5.38674 15.9575 4.73796 15.1364 4.94135 14.2808L7.34542 4.16834Z" fill="#BCBBC1"/>
</svg>
