<svg width="48" height="103" viewBox="0 0 48 103" fill="none" xmlns="http://www.w3.org/2000/svg">
<path d="M9.19144 51.3191C9.19144 49.345 10.7918 47.7447 12.7659 47.7447H36.2553C38.2294 47.7447 39.8297 49.345 39.8297 51.3191C39.8297 53.2932 38.2294 54.8936 36.2553 54.8936H12.7659C10.7918 54.8936 9.19144 53.2932 9.19144 51.3191Z" fill="#BCBBC1"/>
<path d="M8.213 90.7479C7.87681 74.7803 9.57874 65.4792 11.2483 60.8851C12.0345 58.7216 14.2174 57.7021 16.5193 57.7021H32.5019C34.8038 57.7021 36.9867 58.7216 37.7729 60.8851C39.4424 65.4792 41.1444 74.7803 40.8082 90.7479C40.7169 95.0831 37.1147 98.4784 32.7785 98.4784H16.2427C11.9065 98.4784 8.30428 95.0831 8.213 90.7479Z" fill="#BCBBC1"/>
<path d="M20.5363 9.56874C21.5316 5.3817 27.4895 5.38171 28.4849 9.56875L35.6971 39.9062C36.3073 42.4728 34.361 44.9361 31.7228 44.9361H17.2984C14.6602 44.9361 12.7139 42.4728 13.3241 39.9062L20.5363 9.56874Z" fill="#BCBBC1"/>
</svg>
