<svg width="32" height="69" viewBox="0 0 32 69" fill="none" xmlns="http://www.w3.org/2000/svg">
<path d="M6.12763 34.2127C6.12763 32.8967 7.19452 31.8298 8.51061 31.8298H24.1702C25.4863 31.8298 26.5532 32.8967 26.5532 34.2127C26.5532 35.5288 25.4863 36.5957 24.1702 36.5957H8.51061C7.19452 36.5957 6.12763 35.5288 6.12763 34.2127Z" fill="#BCBBC1"/>
<path d="M5.47533 60.4986C5.2512 49.8535 6.38583 43.6528 7.49884 40.5901C8.02298 39.1477 9.47826 38.4681 11.0129 38.4681H21.6679C23.2025 38.4681 24.6578 39.1477 25.182 40.5901C26.295 43.6528 27.4296 49.8535 27.2055 60.4986C27.1446 63.3887 24.7432 65.6523 21.8523 65.6523H10.8284C7.93763 65.6523 5.53618 63.3887 5.47533 60.4986Z" fill="#BCBBC1"/>
<path d="M13.6908 6.37916C14.3544 3.5878 18.3264 3.58781 18.99 6.37916L23.7981 26.6041C24.2049 28.3152 22.9073 29.9574 21.1485 29.9574H11.5323C9.77349 29.9574 8.47592 28.3152 8.8827 26.6041L13.6908 6.37916Z" fill="#BCBBC1"/>
</svg>
