<svg width="48" height="103" viewBox="0 0 48 103" fill="none" xmlns="http://www.w3.org/2000/svg">
<path d="M23.8674 100.909C18.2761 100.909 12.6848 100.909 7.09351 100.909C5.88458 100.909 5.58235 100.758 5.43123 99.3979C4.82676 87.913 4.97788 76.5793 6.64016 65.0944C7.24463 61.6188 8.00021 58.1431 9.36026 54.9696C9.96472 53.7607 10.7203 53.1562 12.0803 53.1562C19.9384 53.1562 27.7965 53.1562 35.6545 53.1562C37.1657 53.1562 38.0724 53.7607 38.6768 55.1208C40.6414 59.9565 41.5481 65.0945 42.0014 70.3835C43.0592 79.9039 43.0592 89.5753 42.6059 99.2468C42.6059 100.758 42.0014 100.909 40.7925 100.909C35.2012 100.909 29.4587 100.909 23.8674 100.909Z" fill="#909090"/>
<path d="M22.8096 43.1825C19.485 43.1825 16.0094 43.1825 12.6848 43.1825C10.7203 43.1825 10.1158 42.4269 10.5692 40.6135C14.0449 28.0708 17.6716 15.5282 21.1473 2.98551C21.4496 2.07881 21.6007 1.021 22.8096 1.021C24.0185 1.021 24.1697 2.07881 24.4719 2.98551C27.9476 15.5282 31.5744 27.9197 35.05 40.4624C35.6545 42.4269 35.05 43.1825 33.0855 43.1825C29.6098 43.1825 26.1342 43.1825 22.6585 43.1825H22.8096Z" fill="#909090"/>
<path d="M23.4141 51.7964C18.7295 51.7964 14.0449 51.7964 9.51136 51.7964C6.79127 51.7964 6.03569 50.4364 6.94239 47.8674C7.69797 45.6007 9.05802 44.8451 11.4759 44.8451C19.7873 44.8451 28.2498 44.8451 36.5612 44.8451C38.9791 44.8451 40.9436 47.4141 40.4902 49.8319C40.188 51.192 39.1302 51.6453 37.7701 51.6453C32.9344 51.6453 28.2498 51.6453 23.4141 51.6453V51.7964Z" fill="#909090"/>
</svg>
