<svg width="96" height="96" viewBox="0 0 96 96" fill="none" xmlns="http://www.w3.org/2000/svg">
<circle cx="48" cy="48" r="48" fill="#A8DD78"/>
<path d="M33.272 54.728C40.302 61.7583 51.6976 61.7583 58.728 54.728C59.5092 53.9471 60.7755 53.9471 61.5564 54.728C62.3377 55.5092 62.3377 56.7755 61.5564 57.5564C52.9644 66.1484 39.0364 66.1484 30.4436 57.5564C29.6624 56.7755 29.6624 55.5092 30.4436 54.728C31.2245 53.9471 32.4908 53.9471 33.272 54.728ZM33.9998 32C34.9817 32 35.7982 32.7075 35.9677 33.6406L35.9998 34V42C35.9998 43.1047 35.1046 44 33.9998 44C33.018 44 32.2014 43.2925 32.032 42.3594L31.9998 42V34C31.9998 32.8953 32.8951 32 33.9998 32ZM57.9998 32C58.9817 32 59.7982 32.7075 59.9677 33.6406L59.9998 34V42C59.9998 43.1047 59.1046 44 57.9998 44C57.018 44 56.2014 43.2925 56.032 42.3594L55.9998 42V34C55.9998 32.8953 56.8951 32 57.9998 32Z" fill="#126782"/>
</svg>
