<svg width="96" height="96" viewBox="0 0 96 96" fill="none" xmlns="http://www.w3.org/2000/svg">
<circle cx="48" cy="48" r="48" fill="#DD3000"/>
<path d="M46 61C49.1566 61 51.6644 61.8359 53.4141 63.5859C54.1953 64.3668 54.1953 65.6331 53.4141 66.4141C52.72 67.1084 51.6422 67.1856 50.8628 66.6456L50.5859 66.4141C49.669 65.4975 48.1769 65 46 65C44.065 65 42.671 65.3931 41.7413 66.1244L41.4141 66.4141C40.6332 67.1953 39.3669 67.1953 38.5859 66.4141C37.8047 65.6331 37.8047 64.3669 38.5859 63.5859C40.3356 61.8359 42.8434 61 46 61ZM52.5859 44.5856C53.3668 43.8043 54.6331 43.8043 55.4141 44.5856C57.6644 46.8356 61.1566 47.9996 65.9997 47.9996C67.1044 47.9996 67.9997 48.8949 67.9997 49.9996C67.9997 51.1044 67.1044 51.9996 65.9997 51.9996C60.1766 51.9996 55.6685 50.4972 52.5853 47.4137C51.804 46.6328 51.804 45.3665 52.5853 44.5856H52.5859ZM39.4139 44.5856C40.1952 45.3665 40.1952 46.6328 39.4139 47.4137C36.3308 50.4972 31.823 51.9996 25.9995 51.9996C24.8948 51.9996 23.9995 51.1044 23.9995 49.9996C23.9995 48.8949 24.8948 47.9996 25.9995 47.9996C30.843 47.9996 34.3355 46.8356 36.5851 44.5856C37.366 43.8043 38.6323 43.8043 39.4133 44.5856H39.4139Z" fill="black"/>
</svg>
