<svg width="96" height="96" viewBox="0 0 96 96" fill="none" xmlns="http://www.w3.org/2000/svg">
<g clip-path="url(#clip0_508_1757)">
<circle cx="48" cy="48" r="48" fill="#D32F2F"/>
<path d="M46 60.9998C49.1566 60.9998 51.6644 61.8358 53.4141 63.5858C54.1953 64.3667 54.1953 65.633 53.4141 66.4139C52.72 67.1083 51.6422 67.1855 50.8628 66.6455L50.5859 66.4139C49.669 65.4974 48.1769 64.9999 46 64.9999C44.065 64.9999 42.671 65.393 41.7413 66.1242L41.4141 66.4139C40.6332 67.1952 39.3669 67.1952 38.5859 66.4139C37.8047 65.633 37.8047 64.3667 38.5859 63.5858C40.3356 61.8358 42.8434 60.9998 46 60.9998ZM52.5859 44.5854C53.3669 43.8042 54.6331 43.8042 55.4141 44.5854C57.6644 46.8354 61.1566 47.9995 65.9997 47.9995C67.1044 47.9995 67.9997 48.8948 67.9997 49.9995C67.9997 51.1042 67.1044 51.9995 65.9997 51.9995C60.1766 51.9995 55.6685 50.497 52.5853 47.4136C51.804 46.6327 51.804 45.3664 52.5853 44.5854H52.5859ZM39.4139 44.5854C40.1952 45.3664 40.1952 46.6326 39.4139 47.4136C36.3308 50.497 31.823 51.9995 25.9995 51.9995C24.8948 51.9995 23.9995 51.1042 23.9995 49.9995C23.9995 48.8948 24.8948 47.9995 25.9995 47.9995C30.843 47.9995 34.3355 46.8354 36.5851 44.5854C37.3661 43.8042 38.6323 43.8042 39.4133 44.5854H39.4139Z" fill="black"/>
</g>
<defs>
<clipPath id="clip0_508_1757">
<rect width="96" height="96" fill="white"/>
</clipPath>
</defs>
</svg>
