<svg width="48" height="48" viewBox="0 0 48 48" fill="none" xmlns="http://www.w3.org/2000/svg">
<g clip-path="url(#clip0_508_1736)">
<circle cx="24" cy="24" r="24" fill="#D32F2F"/>
<path d="M23 30.5002C24.5783 30.5002 25.8322 30.9181 26.707 31.7931C27.0977 32.1836 27.0977 32.8167 26.707 33.2072C26.36 33.5544 25.8211 33.593 25.4314 33.323L25.293 33.2072C24.8345 32.7489 24.0884 32.5002 23 32.5002C22.0325 32.5002 21.3355 32.6967 20.8706 33.0624L20.707 33.2072C20.3166 33.5978 19.6834 33.5978 19.293 33.2072C18.9023 32.8167 18.9023 32.1836 19.293 31.7931C20.1678 30.9181 21.4217 30.5002 23 30.5002ZM26.293 22.293C26.6834 21.9023 27.3166 21.9023 27.707 22.293C28.8322 23.418 30.5783 24 32.9998 24C33.5522 24 33.9998 24.4476 33.9998 25C33.9998 25.5524 33.5522 26 32.9998 26C30.0883 26 27.8342 25.2488 26.2926 23.707C25.902 23.3166 25.902 22.6834 26.2926 22.293H26.293ZM19.707 22.293C20.0976 22.6834 20.0976 23.3166 19.707 23.707C18.1654 25.2488 15.9115 26 12.9998 26C12.4474 26 11.9998 25.5524 11.9998 25C11.9998 24.4476 12.4474 24 12.9998 24C15.4215 24 17.1678 23.418 18.2926 22.293C18.683 21.9023 19.3162 21.9023 19.7066 22.293H19.707Z" fill="black"/>
</g>
<defs>
<clipPath id="clip0_508_1736">
<rect width="48" height="48" fill="white"/>
</clipPath>
</defs>
</svg>
