<svg width="144" height="144" viewBox="0 0 144 144" fill="none" xmlns="http://www.w3.org/2000/svg">
<circle cx="72" cy="72" r="72" fill="#EFEFEF"/>
<path d="M101.412 69.0583C103.268 68.6871 105 70.1069 105 72.0002C105 87.1574 90.1572 102 72 102C53.8428 102 39 87.1574 39 72.0002C39 70.107 40.7321 68.6872 42.5882 69.0583C52.3955 71.0201 62.1986 72.0002 72.0002 72.0002C81.8018 72.0002 91.6042 71.0201 101.412 69.0583ZM98.61 75.678L94.9429 76.2799C87.2971 77.4264 79.6489 78.0002 72.0001 78.0002C65.6261 78.0002 59.2525 77.6018 52.8805 76.8054L49.0574 76.2799L45.3844 75.678L45.4898 76.173C47.7347 85.8325 57.4495 94.7118 69.365 95.8722L70.6976 95.9688L72.0002 96.0002C84.6458 96.0002 95.3414 87.1769 98.231 77.2418L98.5104 76.1735L98.61 75.678ZM54 39C55.4728 39 56.6976 40.0613 56.9518 41.461L57 42V60C57 61.6571 55.6571 63 54 63C52.5273 63 51.3024 61.9388 51.0483 60.5391L51 60V42C51 40.3429 52.3429 39 54 39ZM90 39C91.4728 39 92.6976 40.0613 92.9518 41.461L93 42V60C93 61.6571 91.6571 63 90 63C88.5273 63 87.3024 61.9388 87.0483 60.5391L87 60V42C87 40.3429 88.3429 39 90 39Z" fill="#909090"/>
</svg>
