<svg width="144" height="144" viewBox="0 0 144 144" fill="none" xmlns="http://www.w3.org/2000/svg">
<circle cx="72" cy="72" r="72" fill="#FFD60A"/>
<path d="M87 84C88.6571 84 90 85.3429 90 87C90 88.4728 88.9387 89.6976 87.539 89.9518L87 90H51C49.3429 90 48 88.6571 48 87C48 85.5273 49.0612 84.3024 50.4609 84.0483L51 84H87ZM51 48C52.4728 48 53.6976 49.0613 53.9518 50.461L54 51V63C54 64.6571 52.6571 66 51 66C49.5273 66 48.3024 64.9388 48.0483 63.5391L48 63V51C48 49.3429 49.3429 48 51 48ZM87 48C88.4728 48 89.6976 49.0613 89.9518 50.461L90 51V63C90 64.6571 88.6571 66 87 66C85.5273 66 84.3024 64.9388 84.0483 63.5391L84 63V51C84 49.3429 85.3429 48 87 48Z" fill="black"/>
</svg>
