<svg width="48" height="48" viewBox="0 0 48 48" fill="none" xmlns="http://www.w3.org/2000/svg">
<g clip-path="url(#clip0_508_1728)">
<circle cx="24" cy="24" r="24" fill="#FFC107"/>
<path d="M29 28C29.5524 28 30 28.4476 30 29C30 29.4909 29.6463 29.8992 29.1797 29.9839L29 30H17C16.4476 30 16 29.5524 16 29C16 28.5091 16.3538 28.1008 16.8203 28.0161L17 28H29ZM17 16C17.4909 16 17.8992 16.3538 17.9839 16.8203L18 17V21C18 21.5524 17.5524 22 17 22C16.5091 22 16.1008 21.6463 16.0161 21.1797L16 21V17C16 16.4476 16.4476 16 17 16ZM29 16C29.4909 16 29.8992 16.3538 29.9839 16.8203L30 17V21C30 21.5524 29.5524 22 29 22C28.5091 22 28.1008 21.6463 28.0161 21.1797L28 21V17C28 16.4476 28.4476 16 29 16Z" fill="black"/>
</g>
<defs>
<clipPath id="clip0_508_1728">
<rect width="48" height="48" fill="white"/>
</clipPath>
</defs>
</svg>
