<svg width="96" height="96" viewBox="0 0 96 96" fill="none" xmlns="http://www.w3.org/2000/svg">
<circle cx="48" cy="48" r="48" fill="#FFD60A"/>
<path d="M58 56C59.1047 56 60 56.8953 60 58C60 58.9818 59.2925 59.7984 58.3594 59.9678L58 60H34C32.8953 60 32 59.1048 32 58C32 57.0182 32.7075 56.2016 33.6406 56.0322L34 56H58ZM34 32C34.9819 32 35.7984 32.7075 35.9679 33.6406L36 34V42C36 43.1047 35.1048 44 34 44C33.0182 44 32.2016 43.2925 32.0322 42.3594L32 42V34C32 32.8953 32.8953 32 34 32ZM58 32C58.9819 32 59.7984 32.7075 59.9679 33.6406L60 34V42C60 43.1047 59.1048 44 58 44C57.0182 44 56.2016 43.2925 56.0322 42.3594L56 42V34C56 32.8953 56.8953 32 58 32Z" fill="black"/>
</svg>
