<svg width="48" height="48" viewBox="0 0 48 48" fill="none" xmlns="http://www.w3.org/2000/svg">
<circle cx="24" cy="24" r="24" fill="#82BE4B"/>
<path d="M33.8039 23.0194C34.4227 22.8957 35 23.369 35 24.0001C35 29.0525 30.0524 34.0001 24 34.0001C17.9476 34.0001 13 29.0525 13 24.0001C13 23.369 13.5774 22.8957 14.1961 23.0194C17.4652 23.6734 20.7329 24.0001 24.0001 24.0001C27.2673 24.0001 30.5347 23.6734 33.8039 23.0194ZM32.87 25.226L31.6476 25.4266C29.099 25.8088 26.5496 26.0001 24 26.0001C21.8754 26.0001 19.7508 25.8673 17.6268 25.6018L16.3525 25.4266L15.1281 25.226L15.1633 25.391C15.9116 28.6108 19.1498 31.5706 23.1217 31.9574L23.5659 31.9896L24.0001 32.0001C28.2153 32.0001 31.7805 29.059 32.7437 25.7473L32.8368 25.3912L32.87 25.226ZM18 13C18.4909 13 18.8992 13.3538 18.9839 13.8203L19 14V20C19 20.5524 18.5524 21 18 21C17.5091 21 17.1008 20.6463 17.0161 20.1797L17 20V14C17 13.4476 17.4476 13 18 13ZM30 13C30.4909 13 30.8992 13.3538 30.9839 13.8203L31 14V20C31 20.5524 30.5524 21 30 21C29.5091 21 29.1008 20.6463 29.0161 20.1797L29 20V14C29 13.4476 29.4476 13 30 13Z" fill="black"/>
</svg>
