<svg width="96" height="96" viewBox="0 0 96 96" fill="none" xmlns="http://www.w3.org/2000/svg">
<circle cx="48" cy="48" r="48" fill="#82BE4B"/>
<path d="M67.6078 46.0389C68.8454 45.7914 70 46.7379 70 48.0002C70 58.105 60.1048 68.0002 48 68.0002C35.8952 68.0002 26 58.105 26 48.0002C26 46.738 27.1547 45.7914 28.3922 46.0389C34.9303 47.3467 41.4658 48.0002 48.0002 48.0002C54.5346 48.0002 61.0694 47.3467 67.6078 46.0389ZM65.74 50.452L63.2953 50.8533C58.1981 51.6176 53.0993 52.0001 48.0001 52.0001C43.7507 52.0001 39.5017 51.7345 35.2537 51.2036L32.705 50.8533L30.2562 50.452L30.3266 50.782C31.8231 57.2217 38.2997 63.1412 46.2434 63.9148L47.1318 63.9792L48.0002 64.0001C56.4306 64.0001 63.561 58.118 65.4874 51.4945L65.6736 50.7823L65.74 50.452ZM36 26C36.9818 26 37.7984 26.7075 37.9678 27.6406L38 28V40C38 41.1047 37.1047 42 36 42C35.0182 42 34.2016 41.2925 34.0322 40.3594L34 40V28C34 26.8953 34.8953 26 36 26ZM60 26C60.9818 26 61.7984 26.7075 61.9678 27.6406L62 28V40C62 41.1047 61.1048 42 60 42C59.0182 42 58.2016 41.2925 58.0322 40.3594L58 40V28C58 26.8953 58.8953 26 60 26Z" fill="black"/>
</svg>
