<svg width="49" height="103" viewBox="0 0 49 103" fill="none" xmlns="http://www.w3.org/2000/svg">
<path d="M10.7128 15.1275C10.7128 10.6152 14.3707 6.95728 18.883 6.95728H30.117C34.6293 6.95728 38.2872 10.6152 38.2872 15.1275V37.5956C38.2872 38.7236 37.3728 39.6381 36.2447 39.6381H12.7553C11.6273 39.6381 10.7128 38.7236 10.7128 37.5956V15.1275Z" fill="#BCBBC1"/>
<path d="M10.7128 94.5318C10.7128 96.788 12.5417 98.6169 14.7979 98.6169H34.2021C36.4583 98.6169 38.2872 96.788 38.2872 94.5318V44.4893C38.2872 43.3612 37.3728 42.4467 36.2447 42.4467H12.7553C11.6273 42.4467 10.7128 43.3612 10.7128 44.4893V94.5318Z" fill="#BCBBC1"/>
</svg>
