<svg width="48" height="103" viewBox="0 0 48 103" fill="none" xmlns="http://www.w3.org/2000/svg">
<path d="M5.10635 39.4131H42.6157V41.2191C42.6157 59.6959 42.6157 78.1728 42.6157 96.6496C42.6157 99.706 41.7822 100.54 38.7259 100.54C28.7234 100.54 18.8598 100.54 8.85729 100.54C6.07882 100.54 5.10635 99.567 5.10635 96.7886C5.10635 78.3117 5.10635 59.6959 5.10635 41.2191C5.10635 40.6634 5.10635 39.9688 5.10635 39.4131Z" fill="#909090"/>
<path d="M42.6158 37.6068H5.24533C5.24533 37.0511 5.24533 36.4954 5.24533 35.9397C5.24533 25.9372 5.24533 15.7958 5.24533 5.7933C5.24533 2.8759 6.07888 2.04236 9.1352 2.04236C19.1377 2.04236 29.0013 2.04236 39.0038 2.04236C41.9212 2.04236 42.8936 2.8759 42.8936 5.7933C42.8936 15.7958 42.8936 25.7983 42.8936 35.8008V37.7457L42.6158 37.6068Z" fill="#909090"/>
</svg>
