<svg width="32" height="69" viewBox="0 0 32 69" fill="none" xmlns="http://www.w3.org/2000/svg">
<path d="M6.80847 10.085C6.80847 7.0768 9.24709 4.63818 12.2553 4.63818H19.7446C22.7528 4.63818 25.1915 7.0768 25.1915 10.085V25.0637C25.1915 25.8158 24.5818 26.4254 23.8297 26.4254H8.17017C7.41812 26.4254 6.80847 25.8158 6.80847 25.0637V10.085Z" fill="#BCBBC1"/>
<path d="M6.80847 63.0211C6.80847 64.5252 8.02778 65.7445 9.53188 65.7445H22.468C23.9721 65.7445 25.1915 64.5252 25.1915 63.0211V29.6594C25.1915 28.9074 24.5818 28.2977 23.8297 28.2977H8.17017C7.41812 28.2977 6.80847 28.9074 6.80847 29.6594V63.0211Z" fill="#BCBBC1"/>
</svg>
