<svg width="16" height="35" viewBox="0 0 16 35" fill="none" xmlns="http://www.w3.org/2000/svg">
<path d="M3.4043 5.02126C3.4043 3.51716 4.62361 2.29785 6.1277 2.29785H9.87238C11.3765 2.29785 12.5958 3.51716 12.5958 5.02126V12.5106C12.5958 12.8866 12.291 13.1915 11.9149 13.1915H4.08515C3.70912 13.1915 3.4043 12.8866 3.4043 12.5106V5.02126Z" fill="#BCBBC1"/>
<path d="M3.4043 31.4894C3.4043 32.2414 4.01395 32.8511 4.766 32.8511H11.2341C11.9861 32.8511 12.5958 32.2414 12.5958 31.4894V14.8085C12.5958 14.4325 12.291 14.1277 11.9149 14.1277H4.08515C3.70912 14.1277 3.4043 14.4325 3.4043 14.8085V31.4894Z" fill="#BCBBC1"/>
</svg>
