<svg width="48" height="48" viewBox="0 0 48 48" fill="none" xmlns="http://www.w3.org/2000/svg">
<circle cx="24" cy="24" r="24" fill="#EFEFEF"/>
<path d="M15.222 29.364C19.518 25.068 26.482 25.068 30.7784 29.364C31.169 29.7546 31.169 30.3878 30.7784 30.7782C30.3879 31.1688 29.7548 31.1688 29.3642 30.7782C25.8492 27.2632 20.1514 27.2632 16.6362 30.7782C16.2456 31.1688 15.6124 31.1688 15.222 30.7782C14.8314 30.3877 14.8314 29.7546 15.222 29.364ZM17.0001 16C17.491 16 17.8993 16.3538 17.984 16.8203L18.0001 17V21C18.0001 21.5524 17.5525 22 17.0001 22C16.5092 22 16.1009 21.6463 16.0162 21.1797L16.0001 21V17C16.0001 16.4476 16.4478 16 17.0001 16ZM29.0001 16C29.491 16 29.8993 16.3538 29.984 16.8203L30.0001 17V21C30.0001 21.5524 29.5525 22 29.0001 22C28.5092 22 28.1009 21.6463 28.0162 21.1797L28.0001 21V17C28.0001 16.4476 28.4478 16 29.0001 16Z" fill="#909090"/>
</svg>
