<svg width="144" height="144" viewBox="0 0 144 144" fill="none" xmlns="http://www.w3.org/2000/svg">
<circle cx="72" cy="72" r="72" fill="#EFEFEF"/>
<path d="M45.666 88.092C58.554 75.204 79.446 75.204 92.3352 88.092C93.5071 89.2639 93.5071 91.1633 92.3352 92.3346C91.1638 93.5065 89.2644 93.5065 88.0926 92.3346C77.5476 81.7896 60.4542 81.7896 49.9086 92.3346C48.7367 93.5065 46.8373 93.5065 45.666 92.3346C44.4941 91.1632 44.4941 89.2638 45.666 88.092ZM51.0004 48C52.4731 48 53.698 49.0613 53.9521 50.461L54.0004 51V63C54.0004 64.6571 52.6575 66 51.0004 66C49.5277 66 48.3028 64.9388 48.0487 63.5391L48.0004 63V51C48.0004 49.3429 49.3433 48 51.0004 48ZM87.0004 48C88.4731 48 89.698 49.0613 89.9521 50.461L90.0004 51V63C90.0004 64.6571 88.6575 66 87.0004 66C85.5277 66 84.3028 64.9388 84.0487 63.5391L84.0004 63V51C84.0004 49.3429 85.3433 48 87.0004 48Z" fill="#909090"/>
</svg>
