<svg width="96" height="96" viewBox="0 0 96 96" fill="none" xmlns="http://www.w3.org/2000/svg">
<circle cx="48" cy="48" r="48" fill="#EFEFEF"/>
<path d="M30.444 58.728C39.036 50.136 52.964 50.136 61.5568 58.728C62.338 59.5092 62.338 60.7755 61.5568 61.5564C60.7758 62.3377 59.5096 62.3377 58.7284 61.5564C51.6984 54.5264 40.3028 54.5264 33.2724 61.5564C32.4911 62.3377 31.2248 62.3377 30.444 61.5564C29.6627 60.7755 29.6627 59.5092 30.444 58.728ZM34.0002 32C34.982 32 35.7986 32.7075 35.9681 33.6406L36.0002 34V42C36.0002 43.1047 35.105 44 34.0002 44C33.0184 44 32.2018 43.2925 32.0324 42.3594L32.0002 42V34C32.0002 32.8953 32.8955 32 34.0002 32ZM58.0002 32C58.982 32 59.7986 32.7075 59.9681 33.6406L60.0002 34V42C60.0002 43.1047 59.105 44 58.0002 44C57.0184 44 56.2018 43.2925 56.0324 42.3594L56.0002 42V34C56.0002 32.8953 56.8955 32 58.0002 32Z" fill="#909090"/>
</svg>
