<svg width="48" height="48" viewBox="0 0 48 48" fill="none" xmlns="http://www.w3.org/2000/svg">
<g clip-path="url(#clip0_508_1724)">
<circle cx="24" cy="24" r="24" fill="#00A900"/>
<path d="M16.636 27.364C20.151 30.8792 25.8488 30.8792 29.364 27.364C29.7546 26.9735 30.3878 26.9735 30.7782 27.364C31.1688 27.7546 31.1688 28.3878 30.7782 28.7782C26.4822 33.0742 19.5182 33.0742 15.2218 28.7782C14.8312 28.3877 14.8312 27.7546 15.2218 27.364C15.6123 26.9735 16.2454 26.9735 16.636 27.364ZM16.9999 16C17.4908 16 17.8991 16.3538 17.9838 16.8203L17.9999 17V21C17.9999 21.5524 17.5523 22 16.9999 22C16.509 22 16.1007 21.6463 16.016 21.1797L15.9999 21V17C15.9999 16.4476 16.4475 16 16.9999 16ZM28.9999 16C29.4908 16 29.8991 16.3538 29.9838 16.8203L29.9999 17V21C29.9999 21.5524 29.5523 22 28.9999 22C28.509 22 28.1007 21.6463 28.016 21.1797L27.9999 21V17C27.9999 16.4476 28.4475 16 28.9999 16Z" fill="black"/>
</g>
<defs>
<clipPath id="clip0_508_1724">
<rect width="48" height="48" fill="white"/>
</clipPath>
</defs>
</svg>
