<svg width="144" height="144" viewBox="0 0 144 144" fill="none" xmlns="http://www.w3.org/2000/svg">
<g clip-path="url(#clip0_508_1766)">
<circle cx="72" cy="72" r="72" fill="#00A900"/>
<path d="M49.908 82.092C60.453 92.6375 77.5464 92.6375 88.092 82.092C89.2639 80.9206 91.1633 80.9206 92.3346 82.092C93.5065 83.2639 93.5065 85.1633 92.3346 86.3346C79.4466 99.2226 58.5546 99.2226 45.6654 86.3346C44.4935 85.1632 44.4935 83.2638 45.6654 82.092C46.8368 80.9206 48.7362 80.9206 49.908 82.092ZM50.9997 48C52.4725 48 53.6973 49.0613 53.9515 50.461L53.9998 51V63C53.9998 64.6571 52.6568 66 50.9998 66C49.527 66 48.3022 64.9388 48.048 63.5391L47.9997 63V51C47.9997 49.3429 49.3426 48 50.9997 48ZM86.9997 48C88.4725 48 89.6973 49.0613 89.9515 50.461L89.9998 51V63C89.9998 64.6571 88.6568 66 86.9998 66C85.527 66 84.3022 64.9388 84.048 63.5391L83.9997 63V51C83.9997 49.3429 85.3426 48 86.9997 48Z" fill="black"/>
</g>
<defs>
<clipPath id="clip0_508_1766">
<rect width="144" height="144" fill="white"/>
</clipPath>
</defs>
</svg>
