<svg width="32" height="69" viewBox="0 0 32 69" fill="none" xmlns="http://www.w3.org/2000/svg">
<path d="M15.9116 67.1916C12.1841 67.1916 8.45651 67.1916 4.72898 67.1916C3.92302 67.1916 3.72153 67.0909 3.62079 66.1842C3.21781 58.5276 3.31856 50.9718 4.42674 43.3152C4.82972 40.9981 5.33344 38.681 6.24014 36.5654C6.64312 35.7594 7.14684 35.3564 8.05354 35.3564C13.2922 35.3564 18.5309 35.3564 23.7696 35.3564C24.7771 35.3564 25.3816 35.7594 25.7845 36.6661C27.0942 39.8899 27.6987 43.3152 28.0009 46.8413C28.7061 53.1882 28.7061 59.6358 28.4039 66.0835C28.4039 67.0909 28.0009 67.1916 27.195 67.1916C23.4674 67.1916 19.6391 67.1916 15.9116 67.1916Z" fill="#909090"/>
<path d="M16.3146 28.9088C15.2064 28.9088 13.9975 28.9088 12.8893 28.9088C11.7811 28.9088 10.8744 28.6066 10.0684 27.8006C5.93792 24.0731 5.13196 19.8418 7.65057 14.4016C9.16174 11.1778 11.2774 8.45774 13.4937 5.6369C14.6019 4.22648 15.7101 2.81606 16.6168 1.20415C16.8183 0.901914 16.919 0.599681 17.322 0.700425C17.6243 0.700425 17.725 1.1034 17.6243 1.40564C17.6243 4.52871 19.0347 7.14806 20.6466 9.66667C21.9563 11.6816 23.3667 13.6964 24.4749 15.8121C26.8927 20.7485 25.986 25.0805 21.5533 28.5058C21.251 28.8081 20.8481 28.8081 20.5458 28.8081C19.1354 28.8081 17.725 28.8081 16.3146 28.8081V28.9088Z" fill="#909090"/>
<path d="M15.6094 34.45C12.4863 34.45 9.36322 34.45 6.34089 34.45C4.5275 34.45 4.02378 33.5433 4.72899 31.8306C5.23271 30.3195 6.24015 29.9165 7.75132 29.9165C13.2923 29.9165 18.9339 29.9165 24.4749 29.9165C26.0868 29.9165 27.4972 31.9314 26.9935 33.4426C26.6912 34.3493 26.0868 34.5507 25.1801 34.45C21.9563 34.45 18.8332 34.45 15.6094 34.45Z" fill="#909090"/>
</svg>
