<svg width="16" height="36" viewBox="0 0 16 36" fill="none" xmlns="http://www.w3.org/2000/svg">
<path d="M7.9558 34.5746C6.09203 34.5746 4.22826 34.5746 2.36449 34.5746C1.96151 34.5746 1.86077 34.5242 1.81039 34.0709C1.60891 30.2426 1.65928 26.4647 2.21337 22.6364C2.41486 21.4778 2.66672 20.3193 3.12007 19.2614C3.32156 18.8585 3.57342 18.657 4.02677 18.657C6.64612 18.657 9.26547 18.657 11.8848 18.657C12.3885 18.657 12.6908 18.8585 12.8923 19.3118C13.5471 20.9237 13.8493 22.6364 14.0005 24.3994C14.3531 27.5729 14.3531 30.7967 14.2019 34.0205C14.2019 34.5242 14.0005 34.5746 13.5975 34.5746C11.7337 34.5746 9.81956 34.5746 7.9558 34.5746Z" fill="#909090"/>
<path d="M8.15729 15.4332C7.6032 15.4332 6.99873 15.4332 6.44464 15.4332C5.89054 15.4332 5.43719 15.2821 5.03422 14.8791C2.96896 13.0153 2.56598 10.8997 3.82529 8.17958C4.58087 6.56767 5.63868 5.20763 6.74687 3.79721C7.30096 3.092 7.85506 2.38679 8.3084 1.58083C8.40915 1.42972 8.45952 1.2786 8.66101 1.32897C8.81213 1.32897 8.8625 1.53046 8.81213 1.68158C8.81213 3.24311 9.51734 4.55279 10.3233 5.81209C10.9781 6.81954 11.6833 7.82698 12.2374 8.88479C13.4464 11.353 12.993 13.519 10.7766 15.2317C10.6255 15.3828 10.424 15.3828 10.2729 15.3828C9.56771 15.3828 8.8625 15.3828 8.15729 15.3828V15.4332Z" fill="#909090"/>
<path d="M7.80468 18.2038C6.24315 18.2038 4.68161 18.2038 3.17045 18.2038C2.26375 18.2038 2.01189 17.7504 2.36449 16.8941C2.61635 16.1385 3.12008 15.937 3.87566 15.937C6.64613 15.937 9.46697 15.937 12.2374 15.937C13.0434 15.937 13.7486 16.9445 13.4967 17.7C13.3456 18.1534 13.0434 18.2541 12.59 18.2038C10.9781 18.2038 9.41659 18.2038 7.80468 18.2038Z" fill="#909090"/>
</svg>
