<svg width="48" height="103" viewBox="0 0 48 103" fill="none" xmlns="http://www.w3.org/2000/svg">
<path d="M23.8674 100.787C18.2761 100.787 12.6848 100.787 7.09346 100.787C5.88453 100.787 5.5823 100.636 5.43118 99.2763C4.82672 87.7914 4.97783 76.4577 6.64011 64.9729C7.24458 61.4972 8.00016 58.0215 9.36021 54.8481C9.96468 53.6391 10.7203 53.0347 12.0803 53.0347C19.9384 53.0347 27.7964 53.0347 35.6545 53.0347C37.1656 53.0347 38.0723 53.6391 38.6768 54.9992C40.6413 59.8349 41.548 64.9729 42.0014 70.2619C43.0592 79.7823 43.0592 89.4537 42.6058 99.1252C42.6058 100.636 42.0014 100.787 40.7924 100.787C35.2011 100.787 29.4587 100.787 23.8674 100.787Z" fill="#909090"/>
<path d="M24.4719 43.3632C22.8096 43.3632 20.9962 43.3632 19.3339 43.3632C17.6716 43.3632 16.3116 42.9099 15.1026 41.701C8.90687 36.1097 7.69795 29.7628 11.4759 21.6025C13.7426 16.7667 16.916 12.6866 20.2406 8.45534C21.9029 6.33971 23.5652 4.22408 24.9252 1.80622C25.2274 1.35287 25.3786 0.899522 25.983 1.05064C26.4364 1.05064 26.5875 1.6551 26.4364 2.10845C26.4364 6.79306 28.552 10.7221 30.9699 14.5C32.9344 17.5223 35.05 20.5447 36.7123 23.7181C40.3391 31.1228 38.979 37.6208 32.3299 42.7588C31.8766 43.2121 31.2721 43.2121 30.8188 43.2121C28.7031 43.2121 26.5875 43.2121 24.4719 43.2121V43.3632Z" fill="#909090"/>
<path d="M23.4141 51.675C18.7294 51.675 14.0448 51.675 9.51134 51.675C6.79125 51.675 6.03567 50.3149 7.09348 47.746C7.84906 45.4792 9.36023 44.8748 11.627 44.8748C19.9384 44.8748 28.4009 44.8748 36.7123 44.8748C39.1302 44.8748 41.2458 47.8971 40.4902 50.1638C40.0369 51.5239 39.1302 51.8261 37.7701 51.675C32.9344 51.675 28.2498 51.675 23.4141 51.675Z" fill="#909090"/>
</svg>
