<svg width="32" height="69" viewBox="0 0 32 69" fill="none" xmlns="http://www.w3.org/2000/svg">
<rect x="6.12769" y="31.8723" width="20.4255" height="4.76596" rx="2.38298" fill="#BCBBC1"/>
<path d="M5.47533 60.5411C5.2512 49.8961 6.38583 43.6954 7.49884 40.6326C8.02298 39.1903 9.47826 38.5106 11.0129 38.5106H21.6679C23.2025 38.5106 24.6578 39.1903 25.1819 40.6326C26.295 43.6954 27.4296 49.8961 27.2055 60.5411C27.1446 63.4313 24.7432 65.6948 21.8523 65.6948H10.8284C7.93764 65.6948 5.53618 63.4313 5.47533 60.5411Z" fill="#BCBBC1"/>
<path d="M10.5662 28.5418C1.99266 21.3443 13.971 10.0206 16.4768 5.06151C16.5174 4.96405 16.561 4.87181 16.6077 4.78504C16.6113 4.77821 16.615 4.77142 16.6187 4.76467C16.4547 8.43039 19.3525 11.5649 21.51 14.9215C23.9708 18.411 25.8907 22.0249 23.1426 25.9588C22.1602 27.3651 20.7268 29.4685 19.0127 29.5386L13.4476 29.5012C12.4082 29.4942 11.3623 29.2102 10.5662 28.5418Z" fill="#BCBBC1"/>
<path d="M16.6187 4.76467C16.5752 4.86151 16.5278 4.96048 16.4768 5.06151M16.6187 4.76467C16.5679 4.85734 16.5206 4.95638 16.4768 5.06151M16.6187 4.76467C16.3731 10.2561 22.9985 14.5554 23.7129 20.1953C24.2346 24.3146 18.7647 23.5953 17.7938 19.5583C16.407 13.7923 15.4101 7.62183 16.4768 5.06151M16.4768 5.06151C13.971 10.0206 1.99266 21.3443 10.5662 28.5418C11.3623 29.2102 12.4082 29.4942 13.4476 29.5012L19.0127 29.5386V29.5386C20.7268 29.4685 22.1602 27.3651 23.1426 25.9588C28.6031 18.1423 15.6339 11.5891 16.6105 4.765" stroke="#BCBBC1" stroke-width="1.3617" stroke-linecap="round" stroke-linejoin="round"/>
</svg>
