<svg width="16" height="35" viewBox="0 0 16 35" fill="none" xmlns="http://www.w3.org/2000/svg">
<rect x="3.06384" y="15.9149" width="10.2128" height="2.38298" rx="1.19149" fill="#BCBBC1"/>
<path d="M2.73767 30.2493C2.6256 24.9267 3.19291 21.8264 3.74942 20.295C4.01149 19.5738 4.73913 19.234 5.50643 19.234H10.834C11.6013 19.234 12.3289 19.5738 12.591 20.295C13.1475 21.8264 13.7148 24.9267 13.6027 30.2493C13.5723 31.6943 12.3716 32.8261 10.9262 32.8261H5.41422C3.96882 32.8261 2.76809 31.6943 2.73767 30.2493Z" fill="#BCBBC1"/>
<path d="M5.28316 14.2497C0.996392 10.6509 6.98556 4.98907 8.23845 2.50951C8.25876 2.46078 8.28056 2.41467 8.3039 2.37128C8.30573 2.36787 8.30758 2.36447 8.30943 2.36109C8.22743 4.19396 9.67633 5.7612 10.755 7.43953C11.9855 9.18428 12.9454 10.9912 11.5714 12.9582C11.0801 13.6613 10.3634 14.713 9.50642 14.7481L6.72385 14.7294C6.20415 14.7259 5.6812 14.5838 5.28316 14.2497Z" fill="#BCBBC1"/>
<path d="M8.30943 2.36109C8.28768 2.40951 8.26398 2.459 8.23845 2.50951M8.30943 2.36109C8.28399 2.40743 8.26035 2.45695 8.23845 2.50951M8.30943 2.36109C8.18659 5.10681 11.4993 7.25644 11.8565 10.0764C12.1174 12.136 9.38242 11.7764 8.89694 9.7579C8.20355 6.87489 7.70509 3.78967 8.23845 2.50951M8.23845 2.50951C6.98556 4.98907 0.996392 10.6509 5.28316 14.2497C5.6812 14.5838 6.20415 14.7259 6.72385 14.7294L9.50642 14.7481V14.7481C10.3634 14.713 11.0801 13.6613 11.5714 12.9582C14.3016 9.04991 7.81701 5.77332 8.30531 2.36126" stroke="#BCBBC1" stroke-width="0.680851" stroke-linecap="round" stroke-linejoin="round"/>
</svg>
