<svg width="49" height="103" viewBox="0 0 49 103" fill="none" xmlns="http://www.w3.org/2000/svg">
<rect x="9.69141" y="47.8083" width="30.6383" height="7.14894" rx="3.57447" fill="#BCBBC1"/>
<path d="M8.713 90.8116C8.37681 74.844 10.0787 65.543 11.7483 60.9489C12.5345 58.7854 14.7174 57.7659 17.0193 57.7659H33.0019C35.3038 57.7659 37.4867 58.7854 38.2729 60.9489C39.9424 65.543 41.6444 74.844 41.3082 90.8116C41.2169 95.1469 37.6147 98.5422 33.2785 98.5422H16.7427C12.4064 98.5422 8.80428 95.1469 8.713 90.8116Z" fill="#BCBBC1"/>
<path d="M16.3493 42.8128C3.48905 32.0165 21.4566 15.0309 25.2152 7.59227C25.2762 7.44607 25.3416 7.30772 25.4116 7.17755C25.4171 7.16732 25.4226 7.15713 25.4282 7.147C25.1822 12.6456 29.5289 17.3473 32.765 22.3823C36.4563 27.6166 39.3362 33.0374 35.2139 38.9383C33.7403 41.0477 31.5902 44.2028 29.0191 44.3079L20.6714 44.2518C19.1123 44.2413 17.5435 43.8152 16.3493 42.8128Z" fill="#BCBBC1"/>
<path d="M25.4282 7.147C25.3629 7.29226 25.2918 7.44072 25.2152 7.59227M25.4282 7.147C25.3519 7.28602 25.2809 7.43458 25.2152 7.59227M25.4282 7.147C25.0597 15.3842 34.9978 21.833 36.0694 30.293C36.852 36.4719 28.6471 35.393 27.1907 29.3374C25.1105 20.6884 23.6151 11.4327 25.2152 7.59227M25.2152 7.59227C21.4566 15.0309 3.48905 32.0165 16.3493 42.8128C17.5435 43.8152 19.1123 44.2413 20.6714 44.2518L29.0192 44.3079V44.3079C31.5902 44.2028 33.7403 41.0477 35.2139 38.9383C43.4047 27.2135 23.9509 17.3837 25.4158 7.14751" stroke="#BCBBC1" stroke-width="2.04255" stroke-linecap="round" stroke-linejoin="round"/>
</svg>
